<?xml version="1.0" encoding="UTF-8" standalone="no"?>
<!DOCTYPE svg PUBLIC "-//W3C//DTD SVG 1.1//EN" "http://www.w3.org/Graphics/SVG/1.1/DTD/svg11.dtd">
<svg height="100%" stroke-miterlimit="10" style="fill-rule:nonzero;clip-rule:evenodd;stroke-linecap:round;stroke-linejoin:round;" version="1.1" viewBox="0 0 5000 5000" width="100%" xml:space="preserve" xmlns="http://www.w3.org/2000/svg" xmlns:vectornator="http://vectornator.io" xmlns:xlink="http://www.w3.org/1999/xlink">
<defs/>
<g id="Layer-1" vectornator:layerName="Layer 1">
<path d="M245.343 2480.88C245.343 2480.88 414.584 2240.8 481.391 2083.67C548.199 1926.54 527.84 1851.55 512.792 1840.99C497.743 1830.42 414.101 1806.2 296.633 2194.79C231.114 2411.54 234.237 2703.69 234.237 2703.69C234.237 2703.69 328.088 2349.14 473.212 2348.19C618.337 2347.25 412.404 2703.93 599.315 2718.15C658.82 2722.68 743.713 2688.65 818.725 2583.34C891.648 2480.96 913.379 2315.81 913.379 2315.81C913.379 2315.81 871.372 2480.6 888.465 2594.85C900.726 2676.8 956.039 2723.31 1020.41 2708.19C1174.52 2671.99 1266.39 2493.91 1266.39 2493.91" fill="none" opacity="1" stroke="#ffffff" stroke-linecap="round" stroke-linejoin="round" stroke-width="45" vectornator:layerName="Line 1"/>
<path d="M1764.67 2483.79C1764.67 2483.79 1949.34 2233.27 2012.59 2071.63C2075.85 1909.99 2061.17 1824.62 2012.07 1833.3C1962.97 1841.99 1858.66 2045.56 1801.86 2284.7C1745.07 2523.84 1738.91 2714.24 1879.4 2710.04C2048.88 2704.98 2233.56 2355.09 2322.21 2198.45C2432.38 2003.78 2453.67 1853.29 2403.73 1836.13C2353.79 1818.98 2267.93 1951.27 2192.83 2220.81C2117.72 2490.34 2134.57 2705.18 2134.57 2705.18C2134.57 2705.18 2231.46 2335.88 2377.5 2349.37C2523.53 2362.86 2312.33 2690.29 2487.3 2715.56C2662.28 2740.83 2766.96 2497.14 2789.1 2446.95C2798.52 2425.59 2850.47 2327.55 2952 2332.44C3033.91 2336.38 3097.04 2432.76 2983.67 2494.31C2918.26 2529.82 2863.22 2490.65 2863.22 2490.65C2863.22 2490.65 2916.16 2525.7 2981.1 2499.71C3028.79 2480.62 3105.1 2368.17 2959.13 2335.37C2899.06 2321.87 2815.86 2397.27 2786.95 2456.17C2766.6 2497.63 2698.4 2716.49 2999.7 2710.27C3132.65 2707.52 3317.23 2539.32 3319.98 2342.66C3320.74 2288.84 3349.04 2327.46 3406.33 2337.67C3463.62 2347.87 3494.92 2326.89 3475.26 2362.49C3453.17 2402.49 3391.29 2470.32 3378.85 2529.65C3353.84 2648.92 3424.85 2727.98 3511.19 2703.48C3597.54 2678.98 3693.55 2570.41 3748.03 2431.71C3765.36 2387.59 3829.87 2316.86 3906.5 2323.5C3983.13 2330.14 4047.27 2410.14 3949.33 2480.36C3882.05 2528.59 3820.78 2482.4 3820.78 2482.4C3820.78 2482.4 3886.09 2530.02 3949.96 2477.32C4084.82 2366.05 3906.66 2322.28 3906.66 2322.28C3818.81 2323.66 3767.99 2390.04 3753.17 2422.12C3715.58 2503.47 3680.02 2661.41 3881.73 2704.95C4095.37 2751.06 4248.9 2495.81 4248.9 2495.81" fill="none" opacity="1" stroke="#ffffff" stroke-linecap="round" stroke-linejoin="round" stroke-width="45" vectornator:layerName="Line 3"/>
</g>
</svg>
